<?xml version="1.0" encoding="iso-8859-1"?>
<!-- Uploaded to: SVG Repo, www.svgrepo.com, Generator: SVG Repo Mixer Tools -->
<svg height="800px" width="800px" version="1.1" id="Layer_1" xmlns="http://www.w3.org/2000/svg" xmlns:xlink="http://www.w3.org/1999/xlink" 
	 viewBox="0 0 512 512" xml:space="preserve">
<path style="fill:#8C50D7;" d="M256,0C114.842,0,0,114.842,0,256s114.842,256,256,256s256-114.842,256-256S397.158,0,256,0z
	 M237.037,473.198c-45.905-3.975-87.777-22.204-121.154-50.266l115.94-115.94c1.925-1.925,5.215-0.562,5.215,2.159V473.198z
	 M280.178,306.993l115.94,115.94c-33.377,28.062-75.249,46.291-121.154,50.266V309.152
	C274.963,306.431,278.253,305.068,280.178,306.993z M37.926,256c0-113.852,87.713-207.55,199.111-217.198v201.491
	c0,5.029-1.998,9.852-5.554,13.409L89.068,396.117C57.183,358.19,37.926,309.311,37.926,256z M422.932,396.117L280.517,253.702
	c-3.557-3.557-5.554-8.379-5.554-13.409V38.802C386.361,48.45,474.074,142.149,474.074,256
	C474.074,309.311,454.817,358.19,422.932,396.117z"/>
<path style="fill:#733CB9;" d="M256,18.963C125.088,18.963,18.963,125.088,18.963,256S125.088,493.037,256,493.037
	S493.037,386.912,493.037,256S386.912,18.963,256,18.963z M422.932,396.117l-6.529-6.529c-7.272-7.272-18.929-6.951-26.194,0.329
	c-0.097,0.097-0.194,0.194-0.292,0.292c-7.281,7.264-7.602,18.921-0.329,26.194l6.529,6.529
	c-33.377,28.062-75.249,46.291-121.154,50.266v-9.28c0-10.291-8.479-18.299-18.771-18.289c-0.064,0-0.128,0-0.192,0
	c-0.064,0-0.128,0-0.192,0c-10.291-0.011-18.771,7.996-18.771,18.289v9.28c-45.905-3.975-87.777-22.204-121.154-50.266l6.529-6.529
	c7.272-7.272,6.951-18.929-0.329-26.194c-0.097-0.097-0.194-0.194-0.292-0.292c-7.264-7.281-18.921-7.602-26.194-0.329l-6.529,6.529
	C57.183,358.19,37.926,309.311,37.926,256c0-113.852,87.713-207.55,199.111-217.198v9.28c0,10.291,8.479,18.299,18.771,18.289
	c0.064,0,0.128,0,0.192,0s0.128,0,0.192,0c10.292,0.011,18.771-7.996,18.771-18.289v-9.28
	C386.361,48.45,474.074,142.149,474.074,256C474.074,309.311,454.817,358.19,422.932,396.117z"/>
<path style="fill:#AA6EFF;" d="M256,379.259c6.464,0,12.766-0.651,18.963-1.614v-68.494c0-2.721,3.29-4.084,5.214-2.159
	l48.407,48.406c10.261-7.514,19.301-16.553,26.815-26.815l-74.881-74.882c-3.557-3.556-5.555-8.379-5.555-13.408V134.354
	c-6.197-0.964-12.499-1.614-18.963-1.614c-6.464,0-12.766,0.651-18.963,1.614v105.939c0,5.029-1.998,9.852-5.555,13.408
	L156.6,328.583c7.514,10.261,16.553,19.301,26.815,26.815l48.407-48.406c1.925-1.925,5.214-0.562,5.214,2.159v68.494
	C243.234,378.609,249.536,379.259,256,379.259z"/>
</svg>